<!-- Generator: Adobe Illustrator 21.0.0, SVG Export Plug-In  -->
<svg version="1.1"
	 xmlns="http://www.w3.org/2000/svg" xmlns:xlink="http://www.w3.org/1999/xlink" xmlns:a="http://ns.adobe.com/AdobeSVGViewerExtensions/3.0/"
	 x="0px" y="0px" width="33.371px" height="32.574px" viewBox="0 0 33.371 32.574"
	 style="enable-background:new 0 0 33.371 32.574;" xml:space="preserve">
<style type="text/css">
	.st0{fill:#FFFFFF;}
</style>
<defs>
</defs>
<path class="st0" d="M19.858,24.18c1.172-0.329,2.313-0.539,3.367-0.966c2.684-1.088,3.781-3.305,4.057-6.044
	c0.206-2.039-0.07-3.949-1.441-5.587c-0.11-0.132-0.132-0.414-0.08-0.593c0.34-1.173,0.21-2.319-0.084-3.477
	c-0.139-0.548-0.464-0.753-0.94-0.571c-1.109,0.422-2.211,0.87-3.281,1.382c-0.417,0.199-0.756,0.295-1.221,0.185
	c-2.367-0.559-4.746-0.559-7.11,0.013c-0.449,0.109-0.768-0.006-1.159-0.192c-1.051-0.5-2.127-0.957-3.214-1.374
	c-0.514-0.197-0.885-0.027-1.039,0.6c-0.28,1.14-0.396,2.263-0.077,3.414c0.054,0.196,0.023,0.5-0.099,0.647
	c-1.666,2.029-1.72,4.362-1.22,6.753c0.654,3.132,2.705,4.962,6.009,5.513c0.384,0.064,0.767,0.127,1.107,0.183
	c-0.277,0.725-0.54,1.439-0.827,2.143c-0.041,0.1-0.186,0.173-0.299,0.226c-1.604,0.749-3.39,0.263-4.371-1.218
	c-0.552-0.833-1.165-1.573-2.166-1.881c-0.619-0.191-0.878-0.163-1.57,0.418c0.251,0.13,0.511,0.245,0.753,0.391
	c0.893,0.541,1.48,1.343,1.849,2.297c0.897,2.316,2.954,2.848,4.928,2.607c0.236-0.029,0.47-0.069,0.793-0.116
	c0,1.033,0.042,2.027-0.016,3.015c-0.033,0.559-0.603,0.766-1.293,0.525c-1.633-0.57-3.173-1.338-4.523-2.42
	c-5.457-4.372-7.73-10.062-6.248-16.884C1.913,6.405,6.284,2.115,13.018,0.458c9.244-2.275,18.741,4.189,20.155,13.599
	c1.21,8.048-3.225,15.579-10.803,18.345c-1.099,0.401-1.514,0.119-1.514-1.037c0-1.262,0.001-2.525,0.013-3.787
	C20.882,26.334,20.72,25.145,19.858,24.18z"/>
</svg>