<!-- Generator: Adobe Illustrator 21.0.0, SVG Export Plug-In  -->
<svg version="1.1"
	 xmlns="http://www.w3.org/2000/svg" xmlns:xlink="http://www.w3.org/1999/xlink" xmlns:a="http://ns.adobe.com/AdobeSVGViewerExtensions/3.0/"
	 x="0px" y="0px" width="32.235px" height="31.274px" viewBox="0 0 32.235 31.274"
	 style="enable-background:new 0 0 32.235 31.274;" xml:space="preserve">
<style type="text/css">
	.st0{fill:#FFFFFF;}
</style>
<defs>
</defs>
<g>
	<path class="st0" d="M10.941,9.996c0,7.099,0,14.18,0,21.261c2.426,0,4.818,0,7.217,0c0-0.076,0-0.139,0-0.201
		c0-4.016,0.001-8.033-0.001-12.049c0-0.738,0.147-1.434,0.518-2.082c0.678-1.183,1.657-1.878,3.047-1.917
		c0.612-0.017,1.205,0.073,1.746,0.385c0.653,0.376,1.023,0.969,1.255,1.662c0.264,0.788,0.341,1.606,0.343,2.43
		c0.006,3.862,0.003,7.723,0.003,11.585c0,0.062,0,0.123,0,0.187c2.396,0,4.777,0,7.166,0c0-0.077,0-0.14,0-0.202
		c0-3.992,0-7.984,0-11.977c0-0.876-0.049-1.749-0.192-2.615c-0.189-1.147-0.521-2.245-1.096-3.262
		c-0.973-1.719-2.414-2.838-4.32-3.35c-1.255-0.337-2.527-0.385-3.809-0.176c-1.003,0.163-1.921,0.533-2.739,1.141
		c-0.728,0.541-1.298,1.225-1.794,1.977c-0.033,0.049-0.067,0.097-0.101,0.146c-0.018-0.004-0.035-0.008-0.053-0.012
		c0-0.974,0-1.949,0-2.93C15.705,9.996,13.316,9.996,10.941,9.996z"/>
	<path class="st0" d="M0.446,9.996c0,0.073,0,0.131,0,0.188c0.007,3.044,0.015,6.087,0.02,9.131
		c0.007,3.929,0.013,7.858,0.018,11.787c0,0.113,0.008,0.173,0.151,0.172c2.26-0.005,4.519-0.004,6.779-0.004
		c0.056,0,0.112,0,0.153,0c0-7.104,0-14.186,0-21.274C5.183,9.996,2.824,9.996,0.446,9.996z"/>
	<path class="st0" d="M3.914,0C3.621,0.031,3.326,0.047,3.036,0.097C2.142,0.254,1.368,0.642,0.784,1.353
		C0.12,2.162-0.098,3.101,0.039,4.124c0.156,1.153,0.747,2.029,1.767,2.59c0.951,0.523,1.976,0.591,3.025,0.391
		c0.815-0.156,1.524-0.521,2.075-1.151c0.722-0.825,0.975-1.797,0.82-2.871c-0.14-0.976-0.597-1.778-1.406-2.358
		C5.604,0.211,4.785,0.026,3.914,0z"/>
</g>
</svg>