<!-- Generator: Adobe Illustrator 21.0.0, SVG Export Plug-In  -->
<svg version="1.1"
	 xmlns="http://www.w3.org/2000/svg" xmlns:xlink="http://www.w3.org/1999/xlink" xmlns:a="http://ns.adobe.com/AdobeSVGViewerExtensions/3.0/"
	 x="0px" y="0px" width="34.575px" height="26.094px" viewBox="0 0 34.575 26.094"
	 style="enable-background:new 0 0 34.575 26.094;" xml:space="preserve">
<style type="text/css">
	.st0{fill:#FFFFFF;}
</style>
<defs>
</defs>
<path class="st0" d="M0,0c0,8.751,0,17.433,0,26.094c11.572,0,23.078,0,34.575,0c0-8.733,0-17.398,0-26.094C23.033,0,11.54,0,0,0z
	 M30.589,2.419c-0.137,0.18-0.215,0.308-0.318,0.412c-3.844,3.875-7.689,7.75-11.537,11.621c-1.08,1.086-1.723,1.084-2.801-0.007
	C12.146,10.611,8.362,6.773,4.578,2.937C4.45,2.807,4.327,2.674,4.084,2.419C12.998,2.419,21.747,2.419,30.589,2.419z M2.402,4.492
	c2.864,2.762,5.801,5.593,8.785,8.47c-2.977,3.043-5.831,5.961-8.785,8.982C2.402,15.969,2.402,10.147,2.402,4.492z M4.078,23.698
	c2.967-3.037,5.834-5.97,8.746-8.95c1.305,1.28,2.389,2.759,4.474,2.772c2.087,0.014,3.206-1.414,4.502-2.732
	c2.896,2.967,5.744,5.886,8.694,8.909C21.619,23.698,12.931,23.698,4.078,23.698z M32.153,21.92
	c-2.91-2.978-5.754-5.888-8.626-8.827c2.921-2.856,5.794-5.664,8.626-8.433C32.153,10.267,32.153,16.021,32.153,21.92z"/>
</svg>