<!-- Generator: Adobe Illustrator 21.0.0, SVG Export Plug-In  -->
<svg version="1.1"
	 xmlns="http://www.w3.org/2000/svg" xmlns:xlink="http://www.w3.org/1999/xlink" xmlns:a="http://ns.adobe.com/AdobeSVGViewerExtensions/3.0/"
	 x="0px" y="0px" width="27.217px" height="34.035px" viewBox="0 0 27.217 34.035"
	 style="enable-background:new 0 0 27.217 34.035;" xml:space="preserve">
<style type="text/css">
	.st0{fill:#FFFFFF;}
</style>
<defs>
</defs>
<path class="st0" d="M23.322,34.035c-7.809,0-15.537,0-23.322,0c0-4.965,0-9.893,0-14.869c0.67,0,1.317,0,2.034,0
	c0,4.227,0,8.426,0,12.697c6.415,0,12.762,0,19.199,0c0-4.203,0-8.422,0-12.692c0.736,0,1.383,0,2.09,0
	C23.322,24.117,23.322,29.044,23.322,34.035z"/>
<path class="st0" d="M4.571,29.705c0-0.776-0.036-1.578,0.033-2.37c0.013-0.143,0.457-0.354,0.703-0.356
	c3.155-0.024,6.31-0.016,9.465-0.016c1.101,0,2.202,0.02,3.302-0.008c0.497-0.013,0.724,0.13,0.691,0.659
	c-0.033,0.536-0.019,1.076-0.003,1.614c0.011,0.38-0.086,0.582-0.529,0.58c-4.451-0.014-8.902-0.012-13.354-0.017
	C4.811,29.79,4.742,29.754,4.571,29.705z"/>
<path class="st0" d="M8.11,11.401c0.451-0.764,0.906-1.534,1.399-2.368c3.943,2.317,7.817,4.594,11.786,6.926
	c-0.461,0.77-0.883,1.502-1.344,2.208c-0.058,0.088-0.371,0.112-0.492,0.04c-3.758-2.202-7.507-4.42-11.257-6.637
	C8.184,11.56,8.178,11.529,8.11,11.401z"/>
<path class="st0" d="M18.7,24.319c-0.175,1.586,0.257,1.523-1.653,1.354c-3.773-0.334-7.544-0.682-11.316-1.016
	c-1.006-0.089-1.007-0.075-0.926-1.059c0.154-1.878,0.155-1.892,1.972-1.718c3.77,0.361,7.537,0.751,11.308,1.097
	c0.594,0.054,0.781,0.276,0.659,0.831C18.707,23.973,18.713,24.148,18.7,24.319z"/>
<path class="st0" d="M22.158,0.414c0.878-0.16,1.641-0.333,2.414-0.413c0.153-0.016,0.46,0.302,0.497,0.502
	c0.439,2.358,0.84,4.722,1.251,7.085c0.285,1.639,0.554,3.282,0.865,4.917c0.1,0.527-0.024,0.77-0.577,0.83
	c-0.677,0.072-1.347,0.208-2.151,0.337C23.691,9.257,22.933,4.887,22.158,0.414z"/>
<path class="st0" d="M13.988,4.355c0.736-0.51,1.386-0.984,2.066-1.409c0.11-0.069,0.442,0.012,0.521,0.127
	c2.426,3.553,4.833,7.119,7.242,10.684c0.012,0.018,0.006,0.048,0.018,0.172c-0.696,0.478-1.434,0.984-2.266,1.555
	C19.045,11.781,16.548,8.114,13.988,4.355z"/>
<path class="st0" d="M6.411,15.68c4.414,1.244,8.751,2.466,13.16,3.708c-0.24,0.894-0.458,1.706-0.704,2.623
	c-4.419-1.189-8.769-2.359-13.209-3.553C5.915,17.507,6.153,16.631,6.411,15.68z"/>
</svg>